HIERARCHY
ROOT hip
{
  OFFSET 0 0 0
  CHANNELS 6 Xposition Yposition Zposition Zrotation Yrotation Xrotation
  JOINT abdomen
  {
    OFFSET 0 20.6881 -0.73152
    CHANNELS 3 Zrotation Xrotation Yrotation
    JOINT chest
    {
      OFFSET 0 11.7043 -0.48768
      CHANNELS 3 Zrotation Xrotation Yrotation
      JOINT neck
      {
        OFFSET 0 22.1894 -2.19456
        CHANNELS 3 Zrotation Xrotation Yrotation
        JOINT head
        {
          OFFSET -0.24384 7.07133 1.2192
          CHANNELS 3 Zrotation Xrotation Yrotation
          JOINT leftEye
          {
            OFFSET 4.14528 8.04674 8.04672
            CHANNELS 3 Zrotation Xrotation Yrotation
            End Site
            {
              OFFSET 1 0 0
            }
          }
          JOINT rightEye
          {
            OFFSET -3.6576 8.04674 8.04672
            CHANNELS 3 Zrotation Xrotation Yrotation
            End Site
            {
              OFFSET 1 0 0
            }
          }
        }
      }
      JOINT rCollar
      {
        OFFSET -2.68224 19.2634 -4.8768
        CHANNELS 3 Zrotation Xrotation Yrotation
        JOINT rShldr
        {
          OFFSET -8.77824 -1.95073 1.46304
          CHANNELS 3 Zrotation Xrotation Yrotation
          JOINT rForeArm
          {
            OFFSET -28.1742 -1.7115 0.48768
            CHANNELS 3 Zrotation Xrotation Yrotation
            JOINT rHand
            {
              OFFSET -22.5879 0.773209 7.07136
              CHANNELS 3 Zrotation Xrotation Yrotation
              JOINT rThumb1
              {
                OFFSET -1.2192 -0.487915 3.41376
                CHANNELS 3 Zrotation Xrotation Yrotation
                JOINT rThumb2
                {
                  OFFSET -3.37035 -0.52449 3.41376
                  CHANNELS 3 Zrotation Xrotation Yrotation
                  End Site
                  {
                    OFFSET -1.78271 -1.18214 1.43049
                  }
                }
              }
              JOINT rIndex1
              {
                OFFSET -7.75947 0.938293 5.60832
                CHANNELS 3 Zrotation Xrotation Yrotation
                JOINT rIndex2
                {
                  OFFSET -2.54057 -0.884171 1.56538
                  CHANNELS 3 Zrotation Xrotation Yrotation
                  End Site
                  {
                    OFFSET -1.62519 -0.234802 1.16502
                  }
                }
              }
              JOINT rMid1
              {
                OFFSET -8.24714 1.18213 3.41376
                CHANNELS 3 Zrotation Xrotation Yrotation
                JOINT rMid2
                {
                  OFFSET -3.10165 -0.590103 1.0647
                  CHANNELS 3 Zrotation Xrotation Yrotation
                  End Site
                  {
                    OFFSET -2.48547 -0.328903 0.83742
                  }
                }
              }
              JOINT rRing1
              {
                OFFSET -8.82822 0.546677 1.51678
                CHANNELS 3 Zrotation Xrotation Yrotation
                JOINT rRing2
                {
                  OFFSET -2.60934 -0.819778 -0.0198488
                  CHANNELS 3 Zrotation Xrotation Yrotation
                  End Site
                  {
                    OFFSET -2.33842 -0.294052 0.168128
                  }
                }
              }
              JOINT rPinky1
              {
                OFFSET -8.27202 -0.0477905 -0.4584
                CHANNELS 3 Zrotation Xrotation Yrotation
                JOINT rPinky2
                {
                  OFFSET -1.82734 -0.647385 -0.700984
                  CHANNELS 3 Zrotation Xrotation Yrotation
                  End Site
                  {
                    OFFSET -1.69225 -0.51767 -0.607171
                  }
                }
              }
            }
          }
        }
      }
      JOINT lCollar
      {
        OFFSET 2.68224 19.2634 -4.8768
        CHANNELS 3 Zrotation Xrotation Yrotation
        JOINT lShldr
        {
          OFFSET 8.77824 -1.95073 1.46304
          CHANNELS 3 Zrotation Xrotation Yrotation
          JOINT lForeArm
          {
            OFFSET 28.1742 -1.7115 0.48768
            CHANNELS 3 Zrotation Xrotation Yrotation
            JOINT lHand
            {
              OFFSET 22.5879 0.773209 7.07136
              CHANNELS 3 Zrotation Xrotation Yrotation
              JOINT lThumb1
              {
                OFFSET 1.2192 -0.487915 3.41376
                CHANNELS 3 Zrotation Xrotation Yrotation
                JOINT lThumb2
                {
                  OFFSET 3.37035 -0.52449 3.41376
                  CHANNELS 3 Zrotation Xrotation Yrotation
                  End Site
                  {
                    OFFSET 1.78271 -1.18214 1.43049
                  }
                }
              }
              JOINT lIndex1
              {
                OFFSET 7.75947 0.938293 5.60832
                CHANNELS 3 Zrotation Xrotation Yrotation
                JOINT lIndex2
                {
                  OFFSET 2.54057 -0.884171 1.56538
                  CHANNELS 3 Zrotation Xrotation Yrotation
                  End Site
                  {
                    OFFSET 1.62519 -0.234802 1.16502
                  }
                }
              }
              JOINT lMid1
              {
                OFFSET 8.24714 1.18213 3.41376
                CHANNELS 3 Zrotation Xrotation Yrotation
                JOINT lMid2
                {
                  OFFSET 3.10165 -0.590103 1.0647
                  CHANNELS 3 Zrotation Xrotation Yrotation
                  End Site
                  {
                    OFFSET 2.48547 -0.328903 0.83742
                  }
                }
              }
              JOINT lRing1
              {
                OFFSET 8.82822 0.546677 1.51678
                CHANNELS 3 Zrotation Xrotation Yrotation
                JOINT lRing2
                {
                  OFFSET 2.60934 -0.819778 -0.0198488
                  CHANNELS 3 Zrotation Xrotation Yrotation
                  End Site
                  {
                    OFFSET 2.33842 -0.294052 0.168128
                  }
                }
              }
              JOINT lPinky1
              {
                OFFSET 8.27202 -0.0477905 -0.4584
                CHANNELS 3 Zrotation Xrotation Yrotation
                JOINT lPinky2
                {
                  OFFSET 1.82734 -0.647385 -0.700984
                  CHANNELS 3 Zrotation Xrotation Yrotation
                  End Site
                  {
                    OFFSET 1.69225 -0.51767 -0.607171
                  }
                }
              }
            }
          }
        }
      }
    }
  }
  JOINT rButtock
  {
    OFFSET -8.77824 4.35084 1.2192
    CHANNELS 3 Zrotation Xrotation Yrotation
    JOINT rThigh
    {
      OFFSET 0 -1.70687 -2.19456
      CHANNELS 3 Zrotation Xrotation Yrotation
      JOINT rShin
      {
        OFFSET 0 -36.8199 0.73152
        CHANNELS 3 Zrotation Xrotation Yrotation
        JOINT rFoot
        {
          OFFSET 0.73152 -45.1104 -5.12064
          CHANNELS 3 Zrotation Xrotation Yrotation
          End Site
          {
            OFFSET -1.1221 -3.69964 12.103
          }
        }
      }
    }
  }
  JOINT lButtock
  {
    OFFSET 8.77824 4.35084 1.2192
    CHANNELS 3 Zrotation Xrotation Yrotation
    JOINT lThigh
    {
      OFFSET 0 -1.70687 -2.19456
      CHANNELS 3 Zrotation Xrotation Yrotation
      JOINT lShin
      {
        OFFSET 0 -36.8199 0.73152
        CHANNELS 3 Zrotation Xrotation Yrotation
        JOINT lFoot
        {
          OFFSET -0.73152 -45.1104 -5.12064
          CHANNELS 3 Zrotation Xrotation Yrotation
          End Site
          {
            OFFSET 1.1221 -3.69964 12.103
          }
        }
      }
    }
  }
}
MOTION
Frames:	9
Frame Time:	0.00833333
-18.7194 86.5921 49.4557 -0.0 -0.0 -0.0 -0.0 0.0 -0.0 0.0 -0.0 -0.0 0.245875 19.608241 -158.802917 7.579128 18.139248 157.548848 -0.0 0.0 -0.0 -0.0 0.0 -0.0 -142.973735 39.431617 147.390037 21.143811 1.283524 7.278457 2.390817 20.691971 -33.122663 167.89726 -23.903594 142.662521 71.831195 -48.263725 25.791675 -26.353882 -81.667695 -66.143664 -179.421156 -58.426425 117.044829 -140.282319 0.819434 111.298121 68.983989 -80.15399 40.578188 -142.643726 35.747752 128.057896 -72.350995 72.974965 90.218005 -141.319085 -51.10514 -157.202611 -80.939074 -51.227554 -79.359772 -150.466687 28.856899 -148.790634 142.973735 39.431617 -147.390037 -18.812347 16.03942 -8.544772 -6.932392 19.524083 34.773869 -172.78557 -10.289333 -144.583142 6.581133 6.344846 -1.36571 160.1868 -66.673193 -111.503089 -0.184726 -0.300416 0.104009 4.636634 6.353146 -1.246645 170.281554 -36.72314 -145.341052 161.124049 -6.032933 -141.545464 145.121957 1.974539 179.748654 40.836811 87.924292 -64.22391 -0.098846 0.258289 -0.091255 87.024909 -53.996766 84.065646 -0.0 0.0 -0.0 -0.0 -0.0 -0.0 7.397073 5.294191 87.407088 -5.774708 27.212116 -81.180018 -0.0 0.0 -0.0 -0.0 -0.0 -0.0 -7.507689 6.266531 -95.937971 63.789946 85.973743 11.073513
-18.4488 86.6529 49.1548 -0.0 -0.0 -0.0 -0.0 0.0 -0.0 0.0 -0.0 -0.0 0.245875 19.608241 -158.802917 7.579128 18.139248 157.548848 -0.0 0.0 -0.0 -0.0 0.0 -0.0 -142.973735 39.431617 147.390037 21.143811 1.283524 7.278457 2.390817 20.691971 -33.122663 167.89726 -23.903594 142.662521 71.831195 -48.263725 25.791675 -26.353882 -81.667695 -66.143664 -179.421156 -58.426425 117.044829 -140.282319 0.819434 111.298121 68.983989 -80.15399 40.578188 -142.643726 35.747752 128.057896 -72.350995 72.974965 90.218005 -141.319085 -51.10514 -157.202611 -80.939074 -51.227554 -79.359772 -150.466687 28.856899 -148.790634 142.973735 39.431617 -147.390037 -18.812347 16.03942 -8.544772 -6.932392 19.524083 34.773869 -172.78557 -10.289333 -144.583142 6.581133 6.344846 -1.36571 160.1868 -66.673193 -111.503089 -0.184726 -0.300416 0.104009 4.636634 6.353146 -1.246645 170.281554 -36.72314 -145.341052 161.124049 -6.032933 -141.545464 145.121957 1.974539 179.748654 40.836811 87.924292 -64.22391 -0.098846 0.258289 -0.091255 87.024909 -53.996766 84.065646 -0.0 0.0 -0.0 -0.0 -0.0 -0.0 7.397073 5.294191 87.407088 -5.774708 27.212116 -81.180018 -0.0 0.0 -0.0 -0.0 -0.0 -0.0 -7.507689 6.266531 -95.937971 63.789946 85.973743 11.073513
-18.0873 86.6139 48.8972 -0.0 -0.0 -0.0 -0.0 0.0 -0.0 0.0 -0.0 -0.0 0.245875 19.608241 -158.802917 7.579128 18.139248 157.548848 -0.0 -0.0 0.0 -0.0 -0.0 0.0 -142.973735 39.431617 147.390037 18.812347 16.03942 8.544772 3.516196 8.516581 -33.565431 168.954055 -21.177869 143.162356 -166.631339 -4.304864 89.77151 36.870558 -63.472822 30.715254 29.101454 -49.273748 -4.261669 -163.309722 -13.161874 104.007246 13.807573 -42.122504 -2.983123 1.11333 -1.103235 2.082936 -75.673382 -72.116249 -92.828895 63.921075 -86.09332 38.086507 -36.740552 -44.885008 -35.623497 -2.851337 -13.450171 -3.120695 142.973735 39.431617 -147.390037 -18.812347 16.03942 -8.544772 -6.932392 19.524083 34.773869 -172.78557 -10.289333 -144.583142 177.747581 -15.324192 -89.569824 -147.741318 -48.583245 -102.146694 98.707864 38.541278 -83.307059 32.779873 55.142047 -15.337686 160.889433 -7.337573 -143.345306 177.113313 -49.183293 -140.800118 0.021291 -1.725169 0.542387 149.665365 60.618704 -153.530192 -9.028973 28.890984 -7.893575 172.517336 70.564898 144.600358 -0.0 0.0 -0.0 -0.0 -0.0 -0.0 7.397073 5.294191 87.407088 -5.764178 27.058788 -81.231577 -0.0 0.0 -0.0 -0.0 -0.0 -0.0 -7.507689 6.266531 -95.937971 63.789946 85.973743 11.073513
-17.641 86.5149 48.66 -0.0 -0.0 -0.0 -0.0 0.0 -0.0 0.0 -0.0 -0.0 0.245875 19.608241 -158.802917 7.579128 18.139248 157.548848 -0.0 0.0 -0.0 -0.0 0.0 -0.0 -142.973735 39.431617 147.390037 21.143811 1.283524 7.278457 2.390817 20.691971 -33.122663 167.89726 -23.903594 142.662521 -166.631339 -4.304864 89.77151 -32.888394 -27.866199 7.56491 21.121759 -37.641781 -5.921085 24.409404 -20.010032 5.05825 -39.289155 53.36602 32.877985 -1.41644 11.404898 -0.824539 -145.119721 0.310087 -179.225753 -21.143648 -74.008856 -52.770581 -115.861993 -37.763533 -113.835315 -125.710552 -31.187227 -126.514969 142.973735 39.431617 -147.390037 -18.812347 16.03942 -8.544772 -6.932392 19.524083 34.773869 -172.78557 -10.289333 -144.583142 177.936374 -15.50572 -89.547746 -26.544675 -67.694474 -20.256572 117.900883 27.950241 -99.678959 6.910181 38.422183 3.961346 169.08961 -33.247392 -145.374931 -5.705739 0.683984 -1.828966 75.673382 -72.116249 92.828895 151.115847 -3.083587 -166.425906 -12.988419 44.344312 -10.761472 0.812636 -1.611995 2.686775 -0.0 0.0 -0.0 -0.0 -0.0 -0.0 7.397073 5.294191 87.407088 -5.774708 27.212116 -81.180018 -0.0 0.0 -0.0 -0.0 -0.0 -0.0 -7.507689 6.266531 -95.937971 63.789946 85.973743 11.073513
-17.1635 86.3496 48.4428 -0.0 -0.0 -0.0 -0.0 0.0 -0.0 0.0 -0.0 -0.0 0.245875 19.608241 -158.802917 7.579128 18.139248 157.548848 -0.0 0.0 -0.0 -0.0 0.0 -0.0 -142.973735 39.431617 147.390037 18.812347 16.03942 8.544772 3.516196 8.516581 -33.565431 168.954055 -21.177869 143.162356 6.463714 -6.452652 -0.634888 -7.593967 7.520474 2.291457 21.121759 -37.641781 -5.921085 -3.03185 11.229675 7.906964 23.903801 -61.333833 1.399383 -154.590396 19.273073 135.74607 -145.119721 0.310087 -179.225753 -143.86758 -12.150062 -177.494858 -25.51723 -38.071431 -24.578108 0.642324 -3.03668 0.537729 142.973735 39.431617 -147.390037 -18.812347 16.03942 -8.544772 -6.932392 19.524083 34.773869 -172.78557 -10.289333 -144.583142 6.581133 6.344846 -1.36571 160.1868 -66.673193 -111.503089 -0.184726 -0.300416 0.104009 160.807963 3.723987 -108.04038 170.281554 -36.72314 -145.341052 161.124049 -6.032933 -141.545464 145.121957 1.974539 179.748654 40.836811 87.924292 -64.22391 -0.098846 0.258289 -0.091255 87.024909 -53.996766 84.065646 -0.0 0.0 -0.0 -0.0 -0.0 -0.0 7.397073 5.294191 87.407088 -5.774708 27.212116 -81.180018 -0.0 0.0 -0.0 -0.0 -0.0 -0.0 -7.507689 6.266531 -95.937971 63.789946 85.973743 11.073513
-16.6541 86.1581 48.2835 -0.0 -0.0 -0.0 -0.0 0.0 -0.0 0.0 -0.0 -0.0 0.245875 19.608241 -158.802917 7.579128 18.139248 157.548848 -0.0 0.0 -0.0 -0.0 0.0 -0.0 -142.973735 39.431617 147.390037 18.812347 16.03942 8.544772 3.516196 8.516581 -33.565431 168.954055 -21.177869 143.162356 6.463714 -6.452652 -0.634888 -7.593967 7.520474 2.291457 21.121759 -37.641781 -5.921085 -3.03185 11.229675 7.906964 23.903801 -61.333833 1.399383 -154.590396 19.273073 135.74607 -145.119721 0.310087 -179.225753 -143.86758 -12.150062 -177.494858 -25.51723 -38.071431 -24.578108 0.642324 -3.03668 0.537729 142.973735 39.431617 -147.390037 -18.812347 16.03942 -8.544772 -6.932392 19.524083 34.773869 -172.78557 -10.289333 -144.583142 6.581133 6.344846 -1.36571 160.1868 -66.673193 -111.503089 -0.184726 -0.300416 0.104009 160.807963 3.723987 -108.04038 170.281554 -36.72314 -145.341052 161.124049 -6.032933 -141.545464 145.121957 1.974539 179.748654 40.836811 87.924292 -64.22391 -0.098846 0.258289 -0.091255 87.024909 -53.996766 84.065646 -0.0 0.0 -0.0 -0.0 -0.0 -0.0 7.397073 5.294191 87.407088 -5.774708 27.212116 -81.180018 -0.0 0.0 -0.0 -0.0 -0.0 -0.0 -7.507689 6.266531 -95.937971 63.789946 85.973743 11.073513
-16.1113 85.9582 48.1872 -0.0 -0.0 -0.0 -0.0 0.0 -0.0 0.0 -0.0 -0.0 0.245875 19.608241 -158.802917 7.579128 18.139248 157.548848 -0.0 -0.0 0.0 -0.0 -0.0 0.0 -142.973735 39.431617 147.390037 18.812347 16.03942 8.544772 3.516196 8.516581 -33.565431 168.954055 -21.177869 143.162356 -170.594228 -8.27758 89.948904 -69.368901 0.771743 20.755409 174.382035 -63.05997 113.272685 -59.602002 49.578542 54.808158 6.533059 -20.414937 -2.717988 -85.239253 63.201938 74.16393 -0.014868 -1.323148 -0.415899 1.502429 -44.475106 -5.063336 26.973563 80.122588 10.137824 -85.827685 -50.688317 -83.921458 142.973735 39.431617 -147.390037 -18.812347 16.03942 -8.544772 -6.932392 19.524083 34.773869 -172.78557 -10.289333 -144.583142 -66.257853 -46.842795 -22.116955 34.717221 17.122724 0.304508 -9.087734 -15.965515 4.197453 103.36433 42.184835 -73.272559 -2.100045 -6.305437 1.081362 162.11732 7.828442 -141.160609 145.121957 1.974539 179.748654 143.413463 76.670838 -168.31916 46.800482 -48.625216 45.559379 160.954838 69.354277 153.625835 -0.0 0.0 -0.0 -0.0 -0.0 -0.0 7.397073 5.294191 87.407088 -5.764178 27.058788 -81.231577 -0.0 0.0 -0.0 -0.0 -0.0 -0.0 -7.507689 6.266531 -95.937971 63.789946 85.973743 11.073513
-15.5377 85.7579 48.1352 -0.0 0.0 -0.0 -0.0 -4.771896 -180.0 -0.0 -4.771896 180.0 -7.18087 5.633523 -53.581742 8.784862 2.451204 53.7472 0.0 -0.0 -0.0 0.0 -0.0 -0.0 -80.1661 68.371792 83.260848 -70.364354 86.569962 89.873968 56.230418 66.969339 -67.332188 -140.482043 67.391708 118.2932 -0.441471 0.435329 0.069465 -57.145335 28.689402 52.065096 -27.608968 30.765951 20.255213 -173.887384 -16.9373 117.274087 -171.805991 -40.921878 145.170237 9.78434 -11.132704 1.006124 0.000171 0.022601 0.007101 -7.125727 44.84539 8.936936 -145.256996 12.331835 -141.896794 6.033398 3.122979 -1.00312 9.651699 34.836178 -11.199233 167.65398 58.445358 -178.601745 -179.042468 3.756677 -178.979509 8.509899 25.925769 -1.05682 -66.257853 -46.842795 -22.116955 34.717221 17.122724 0.304508 -10.281995 -18.182542 4.585706 -76.168837 -55.828323 -34.847841 36.036059 51.723116 -29.832321 12.773103 37.026303 -7.485136 69.297282 72.946551 -87.017042 32.051892 -65.123378 49.41703 138.443086 -6.230077 135.659578 -10.693675 16.526632 -3.254214 -180.0 75.749642 -0.0 -180.0 75.749642 -0.0 4.445166 0.953768 40.468835 69.668738 -60.488321 -25.931468 -180.0 75.749642 -0.0 -180.0 75.749642 -0.0 -7.051593 4.103085 -76.605942 140.489727 38.716886 -72.701473
-14.9626 85.5823 48.1004 -0.0 0.0 -0.0 -0.0 -4.771896 -180.0 -0.0 -4.771896 180.0 -7.18087 5.633523 -53.581742 8.784862 2.451204 53.7472 0.0 -0.0 -0.0 0.0 -0.0 -0.0 -80.1661 68.371792 83.260848 -69.635806 -86.478119 -91.127397 -83.952846 74.153285 65.70222 77.632961 -70.454161 62.684608 -171.653675 -9.336187 89.949478 179.485214 -16.714181 94.416614 -135.712268 8.932136 113.08006 -85.098531 61.145015 72.565443 23.903801 -61.333833 1.399383 -162.022311 2.62486 139.472051 -145.121957 1.974539 -179.748654 20.346167 -0.617988 -9.450824 -0.344362 -0.890269 -0.318422 -129.52737 -31.363523 -125.499261 9.651699 34.836178 -11.199233 167.65398 58.445358 -178.601745 -89.244898 71.917928 104.651182 150.070229 62.558473 -126.786746 -114.538671 -50.245352 -55.721798 33.732809 -6.364345 12.003205 -37.215945 -57.917763 0.643014 -89.423132 -54.235109 -37.545021 158.521826 -0.192208 -142.144949 176.630368 -49.21086 -141.429538 -0.004672 0.917534 -0.288227 164.16589 17.310649 -169.51221 -16.013665 56.032703 -12.358013 0.556739 -1.587533 3.167993 -180.0 75.749642 -0.0 -180.0 75.749642 -0.0 4.445166 0.953768 40.468835 69.668738 -60.488321 -25.931468 -180.0 75.749642 -0.0 -180.0 75.749642 -0.0 -7.051593 4.103085 -76.605942 140.489727 38.716886 -72.701473
